<mxfile host="65bd71144e">
    <diagram id="UZqTKvQIybFp9sepgy2c" name="ページ1">
        <mxGraphModel dx="2201" dy="771" grid="1" gridSize="10" guides="1" tooltips="1" connect="1" arrows="1" fold="1" page="1" pageScale="1" pageWidth="827" pageHeight="1169" math="0" shadow="0">
            <root>
                <mxCell id="kUnFd_XGb2aV6UYkpDGq-0"/>
                <mxCell id="kUnFd_XGb2aV6UYkpDGq-1" parent="kUnFd_XGb2aV6UYkpDGq-0"/>
                <mxCell id="kUnFd_XGb2aV6UYkpDGq-2" value="&lt;font style=&quot;font-size: 30px&quot;&gt;A&lt;/font&gt;" style="rounded=0;whiteSpace=wrap;html=1;" parent="kUnFd_XGb2aV6UYkpDGq-1" vertex="1">
                    <mxGeometry x="-760" y="100" width="60" height="60" as="geometry"/>
                </mxCell>
                <mxCell id="kUnFd_XGb2aV6UYkpDGq-3" value="&lt;font style=&quot;font-size: 30px&quot;&gt;C&lt;/font&gt;" style="rounded=0;whiteSpace=wrap;html=1;" parent="kUnFd_XGb2aV6UYkpDGq-1" vertex="1">
                    <mxGeometry x="-400" y="100" width="60" height="60" as="geometry"/>
                </mxCell>
                <mxCell id="kUnFd_XGb2aV6UYkpDGq-4" value="&lt;font style=&quot;font-size: 30px&quot;&gt;B&lt;/font&gt;" style="rounded=0;whiteSpace=wrap;html=1;" parent="kUnFd_XGb2aV6UYkpDGq-1" vertex="1">
                    <mxGeometry x="-700" y="100" width="60" height="60" as="geometry"/>
                </mxCell>
                <mxCell id="kUnFd_XGb2aV6UYkpDGq-5" value="&lt;font style=&quot;font-size: 30px&quot;&gt;D&lt;br&gt;&lt;/font&gt;" style="rounded=0;whiteSpace=wrap;html=1;" parent="kUnFd_XGb2aV6UYkpDGq-1" vertex="1">
                    <mxGeometry x="20" y="100" width="60" height="60" as="geometry"/>
                </mxCell>
                <mxCell id="kUnFd_XGb2aV6UYkpDGq-6" value="&lt;font style=&quot;font-size: 30px&quot;&gt;A&lt;/font&gt;" style="rounded=0;whiteSpace=wrap;html=1;" parent="kUnFd_XGb2aV6UYkpDGq-1" vertex="1">
                    <mxGeometry x="-160" y="100" width="60" height="60" as="geometry"/>
                </mxCell>
                <mxCell id="kUnFd_XGb2aV6UYkpDGq-7" value="&lt;font style=&quot;font-size: 30px&quot;&gt;A&lt;/font&gt;" style="rounded=0;whiteSpace=wrap;html=1;" parent="kUnFd_XGb2aV6UYkpDGq-1" vertex="1">
                    <mxGeometry x="-520" y="100" width="60" height="60" as="geometry"/>
                </mxCell>
                <mxCell id="kUnFd_XGb2aV6UYkpDGq-8" value="&lt;font style=&quot;font-size: 30px&quot;&gt;B&lt;/font&gt;" style="rounded=0;whiteSpace=wrap;html=1;" parent="kUnFd_XGb2aV6UYkpDGq-1" vertex="1">
                    <mxGeometry x="-280" y="100" width="60" height="60" as="geometry"/>
                </mxCell>
                <mxCell id="kUnFd_XGb2aV6UYkpDGq-9" value="&lt;font style=&quot;font-size: 30px&quot;&gt;D&lt;/font&gt;" style="rounded=0;whiteSpace=wrap;html=1;" parent="kUnFd_XGb2aV6UYkpDGq-1" vertex="1">
                    <mxGeometry x="-580" y="100" width="60" height="60" as="geometry"/>
                </mxCell>
                <mxCell id="kUnFd_XGb2aV6UYkpDGq-10" value="&lt;font style=&quot;font-size: 30px&quot;&gt;C&lt;/font&gt;" style="rounded=0;whiteSpace=wrap;html=1;" parent="kUnFd_XGb2aV6UYkpDGq-1" vertex="1">
                    <mxGeometry x="-640" y="100" width="60" height="60" as="geometry"/>
                </mxCell>
                <mxCell id="kUnFd_XGb2aV6UYkpDGq-11" value="&lt;font style=&quot;font-size: 30px&quot;&gt;A&lt;/font&gt;" style="rounded=0;whiteSpace=wrap;html=1;" parent="kUnFd_XGb2aV6UYkpDGq-1" vertex="1">
                    <mxGeometry x="-340" y="100" width="60" height="60" as="geometry"/>
                </mxCell>
                <mxCell id="kUnFd_XGb2aV6UYkpDGq-12" value="&lt;font style=&quot;font-size: 30px&quot;&gt;B&lt;/font&gt;" style="rounded=0;whiteSpace=wrap;html=1;" parent="kUnFd_XGb2aV6UYkpDGq-1" vertex="1">
                    <mxGeometry x="-460" y="100" width="60" height="60" as="geometry"/>
                </mxCell>
                <mxCell id="kUnFd_XGb2aV6UYkpDGq-13" value="&lt;font style=&quot;font-size: 30px&quot;&gt;C&lt;/font&gt;" style="rounded=0;whiteSpace=wrap;html=1;" parent="kUnFd_XGb2aV6UYkpDGq-1" vertex="1">
                    <mxGeometry x="-220" y="100" width="60" height="60" as="geometry"/>
                </mxCell>
                <mxCell id="kUnFd_XGb2aV6UYkpDGq-14" value="&lt;font style=&quot;font-size: 30px&quot;&gt;C&lt;/font&gt;" style="rounded=0;whiteSpace=wrap;html=1;" parent="kUnFd_XGb2aV6UYkpDGq-1" vertex="1">
                    <mxGeometry x="-40" y="100" width="60" height="60" as="geometry"/>
                </mxCell>
                <mxCell id="kUnFd_XGb2aV6UYkpDGq-15" value="&lt;font style=&quot;font-size: 30px&quot;&gt;B&lt;/font&gt;" style="rounded=0;whiteSpace=wrap;html=1;" parent="kUnFd_XGb2aV6UYkpDGq-1" vertex="1">
                    <mxGeometry x="-100" y="100" width="60" height="60" as="geometry"/>
                </mxCell>
                <mxCell id="kUnFd_XGb2aV6UYkpDGq-16" value="&lt;font style=&quot;font-size: 30px&quot;&gt;A&lt;/font&gt;" style="rounded=0;whiteSpace=wrap;html=1;" parent="kUnFd_XGb2aV6UYkpDGq-1" vertex="1">
                    <mxGeometry x="-580" y="260" width="60" height="60" as="geometry"/>
                </mxCell>
                <mxCell id="kUnFd_XGb2aV6UYkpDGq-17" value="&lt;font style=&quot;font-size: 30px&quot;&gt;B&lt;/font&gt;" style="rounded=0;whiteSpace=wrap;html=1;" parent="kUnFd_XGb2aV6UYkpDGq-1" vertex="1">
                    <mxGeometry x="-700" y="260" width="60" height="60" as="geometry"/>
                </mxCell>
                <mxCell id="kUnFd_XGb2aV6UYkpDGq-18" value="&lt;font style=&quot;font-size: 30px&quot;&gt;A&lt;/font&gt;" style="rounded=0;whiteSpace=wrap;html=1;" parent="kUnFd_XGb2aV6UYkpDGq-1" vertex="1">
                    <mxGeometry x="-760" y="260" width="60" height="60" as="geometry"/>
                </mxCell>
                <mxCell id="kUnFd_XGb2aV6UYkpDGq-19" value="&lt;font style=&quot;font-size: 30px&quot;&gt;C&lt;/font&gt;" style="rounded=0;whiteSpace=wrap;html=1;" parent="kUnFd_XGb2aV6UYkpDGq-1" vertex="1">
                    <mxGeometry x="-640" y="260" width="60" height="60" as="geometry"/>
                </mxCell>
                <mxCell id="kUnFd_XGb2aV6UYkpDGq-20" value="&lt;font style=&quot;font-size: 30px&quot;&gt;B&lt;/font&gt;" style="rounded=0;whiteSpace=wrap;html=1;" parent="kUnFd_XGb2aV6UYkpDGq-1" vertex="1">
                    <mxGeometry x="-520" y="260" width="60" height="60" as="geometry"/>
                </mxCell>
                <mxCell id="kUnFd_XGb2aV6UYkpDGq-21" value="&lt;font style=&quot;font-size: 30px&quot;&gt;C&lt;/font&gt;" style="rounded=0;whiteSpace=wrap;html=1;" parent="kUnFd_XGb2aV6UYkpDGq-1" vertex="1">
                    <mxGeometry x="-460" y="260" width="60" height="60" as="geometry"/>
                </mxCell>
                <mxCell id="kUnFd_XGb2aV6UYkpDGq-22" value="&lt;font style=&quot;font-size: 30px&quot;&gt;D&lt;/font&gt;" style="rounded=0;whiteSpace=wrap;html=1;" parent="kUnFd_XGb2aV6UYkpDGq-1" vertex="1">
                    <mxGeometry x="-400" y="260" width="60" height="60" as="geometry"/>
                </mxCell>
                <mxCell id="kUnFd_XGb2aV6UYkpDGq-23" value="文字列" style="text;strokeColor=none;fillColor=none;html=1;fontSize=24;fontStyle=1;verticalAlign=middle;align=center;" parent="kUnFd_XGb2aV6UYkpDGq-1" vertex="1">
                    <mxGeometry x="-810" y="50" width="100" height="40" as="geometry"/>
                </mxCell>
                <mxCell id="kUnFd_XGb2aV6UYkpDGq-24" value="探索文字列" style="text;strokeColor=none;fillColor=none;html=1;fontSize=24;fontStyle=1;verticalAlign=middle;align=center;" parent="kUnFd_XGb2aV6UYkpDGq-1" vertex="1">
                    <mxGeometry x="-780" y="210" width="100" height="40" as="geometry"/>
                </mxCell>
            </root>
        </mxGraphModel>
    </diagram>
    <diagram id="FnnlUYwzxnVJkpfcIuF5" name="ページ2">
        <mxGraphModel dx="2136" dy="734" grid="1" gridSize="10" guides="1" tooltips="1" connect="1" arrows="1" fold="1" page="1" pageScale="1" pageWidth="827" pageHeight="1169" math="0" shadow="0">
            <root>
                <mxCell id="U6GmGX0sfwzA4h6ffgH3-0"/>
                <mxCell id="U6GmGX0sfwzA4h6ffgH3-1" parent="U6GmGX0sfwzA4h6ffgH3-0"/>
                <mxCell id="3xjQPuPPYgC1eYExcaYD-0" value="&lt;font style=&quot;font-size: 30px&quot;&gt;A&lt;/font&gt;" style="rounded=0;whiteSpace=wrap;html=1;" parent="U6GmGX0sfwzA4h6ffgH3-1" vertex="1">
                    <mxGeometry x="-100" y="80" width="60" height="60" as="geometry"/>
                </mxCell>
                <mxCell id="3xjQPuPPYgC1eYExcaYD-1" value="&lt;font style=&quot;font-size: 30px&quot;&gt;C&lt;/font&gt;" style="rounded=0;whiteSpace=wrap;html=1;" parent="U6GmGX0sfwzA4h6ffgH3-1" vertex="1">
                    <mxGeometry x="260" y="80" width="60" height="60" as="geometry"/>
                </mxCell>
                <mxCell id="3xjQPuPPYgC1eYExcaYD-2" value="&lt;font style=&quot;font-size: 30px&quot;&gt;B&lt;/font&gt;" style="rounded=0;whiteSpace=wrap;html=1;" parent="U6GmGX0sfwzA4h6ffgH3-1" vertex="1">
                    <mxGeometry x="-40" y="80" width="60" height="60" as="geometry"/>
                </mxCell>
                <mxCell id="3xjQPuPPYgC1eYExcaYD-3" value="&lt;font style=&quot;font-size: 30px&quot;&gt;D&lt;br&gt;&lt;/font&gt;" style="rounded=0;whiteSpace=wrap;html=1;" parent="U6GmGX0sfwzA4h6ffgH3-1" vertex="1">
                    <mxGeometry x="680" y="80" width="60" height="60" as="geometry"/>
                </mxCell>
                <mxCell id="3xjQPuPPYgC1eYExcaYD-4" value="&lt;font style=&quot;font-size: 30px&quot;&gt;A&lt;/font&gt;" style="rounded=0;whiteSpace=wrap;html=1;" parent="U6GmGX0sfwzA4h6ffgH3-1" vertex="1">
                    <mxGeometry x="500" y="80" width="60" height="60" as="geometry"/>
                </mxCell>
                <mxCell id="3xjQPuPPYgC1eYExcaYD-5" value="&lt;font style=&quot;font-size: 30px&quot;&gt;A&lt;/font&gt;" style="rounded=0;whiteSpace=wrap;html=1;" parent="U6GmGX0sfwzA4h6ffgH3-1" vertex="1">
                    <mxGeometry x="140" y="80" width="60" height="60" as="geometry"/>
                </mxCell>
                <mxCell id="3xjQPuPPYgC1eYExcaYD-6" value="&lt;font style=&quot;font-size: 30px&quot;&gt;B&lt;/font&gt;" style="rounded=0;whiteSpace=wrap;html=1;" parent="U6GmGX0sfwzA4h6ffgH3-1" vertex="1">
                    <mxGeometry x="380" y="80" width="60" height="60" as="geometry"/>
                </mxCell>
                <mxCell id="3xjQPuPPYgC1eYExcaYD-7" value="&lt;font style=&quot;font-size: 30px&quot;&gt;D&lt;/font&gt;" style="rounded=0;whiteSpace=wrap;html=1;" parent="U6GmGX0sfwzA4h6ffgH3-1" vertex="1">
                    <mxGeometry x="80" y="80" width="60" height="60" as="geometry"/>
                </mxCell>
                <mxCell id="3xjQPuPPYgC1eYExcaYD-8" value="&lt;font style=&quot;font-size: 30px&quot;&gt;C&lt;/font&gt;" style="rounded=0;whiteSpace=wrap;html=1;" parent="U6GmGX0sfwzA4h6ffgH3-1" vertex="1">
                    <mxGeometry x="20" y="80" width="60" height="60" as="geometry"/>
                </mxCell>
                <mxCell id="3xjQPuPPYgC1eYExcaYD-9" value="&lt;font style=&quot;font-size: 30px&quot;&gt;A&lt;/font&gt;" style="rounded=0;whiteSpace=wrap;html=1;" parent="U6GmGX0sfwzA4h6ffgH3-1" vertex="1">
                    <mxGeometry x="320" y="80" width="60" height="60" as="geometry"/>
                </mxCell>
                <mxCell id="3xjQPuPPYgC1eYExcaYD-10" value="&lt;font style=&quot;font-size: 30px&quot;&gt;B&lt;/font&gt;" style="rounded=0;whiteSpace=wrap;html=1;" parent="U6GmGX0sfwzA4h6ffgH3-1" vertex="1">
                    <mxGeometry x="200" y="80" width="60" height="60" as="geometry"/>
                </mxCell>
                <mxCell id="3xjQPuPPYgC1eYExcaYD-11" value="&lt;font style=&quot;font-size: 30px&quot;&gt;C&lt;/font&gt;" style="rounded=0;whiteSpace=wrap;html=1;" parent="U6GmGX0sfwzA4h6ffgH3-1" vertex="1">
                    <mxGeometry x="440" y="80" width="60" height="60" as="geometry"/>
                </mxCell>
                <mxCell id="3xjQPuPPYgC1eYExcaYD-12" value="&lt;font style=&quot;font-size: 30px&quot;&gt;C&lt;/font&gt;" style="rounded=0;whiteSpace=wrap;html=1;" parent="U6GmGX0sfwzA4h6ffgH3-1" vertex="1">
                    <mxGeometry x="620" y="80" width="60" height="60" as="geometry"/>
                </mxCell>
                <mxCell id="3xjQPuPPYgC1eYExcaYD-13" value="&lt;font style=&quot;font-size: 30px&quot;&gt;B&lt;/font&gt;" style="rounded=0;whiteSpace=wrap;html=1;" parent="U6GmGX0sfwzA4h6ffgH3-1" vertex="1">
                    <mxGeometry x="560" y="80" width="60" height="60" as="geometry"/>
                </mxCell>
                <mxCell id="3xjQPuPPYgC1eYExcaYD-14" value="&lt;font style=&quot;font-size: 30px&quot;&gt;A&lt;/font&gt;" style="rounded=0;whiteSpace=wrap;html=1;" parent="U6GmGX0sfwzA4h6ffgH3-1" vertex="1">
                    <mxGeometry x="80" y="190" width="60" height="60" as="geometry"/>
                </mxCell>
                <mxCell id="3xjQPuPPYgC1eYExcaYD-15" value="&lt;font style=&quot;font-size: 30px&quot;&gt;B&lt;/font&gt;" style="rounded=0;whiteSpace=wrap;html=1;" parent="U6GmGX0sfwzA4h6ffgH3-1" vertex="1">
                    <mxGeometry x="-40" y="190" width="60" height="60" as="geometry"/>
                </mxCell>
                <mxCell id="3xjQPuPPYgC1eYExcaYD-16" value="&lt;font style=&quot;font-size: 30px&quot;&gt;A&lt;/font&gt;" style="rounded=0;whiteSpace=wrap;html=1;" parent="U6GmGX0sfwzA4h6ffgH3-1" vertex="1">
                    <mxGeometry x="-100" y="190" width="60" height="60" as="geometry"/>
                </mxCell>
                <mxCell id="3xjQPuPPYgC1eYExcaYD-17" value="&lt;font style=&quot;font-size: 30px&quot;&gt;C&lt;/font&gt;" style="rounded=0;whiteSpace=wrap;html=1;" parent="U6GmGX0sfwzA4h6ffgH3-1" vertex="1">
                    <mxGeometry x="20" y="190" width="60" height="60" as="geometry"/>
                </mxCell>
                <mxCell id="3xjQPuPPYgC1eYExcaYD-18" value="&lt;font style=&quot;font-size: 30px&quot;&gt;B&lt;/font&gt;" style="rounded=0;whiteSpace=wrap;html=1;" parent="U6GmGX0sfwzA4h6ffgH3-1" vertex="1">
                    <mxGeometry x="140" y="190" width="60" height="60" as="geometry"/>
                </mxCell>
                <mxCell id="3xjQPuPPYgC1eYExcaYD-19" value="&lt;font style=&quot;font-size: 30px&quot;&gt;C&lt;/font&gt;" style="rounded=0;whiteSpace=wrap;html=1;" parent="U6GmGX0sfwzA4h6ffgH3-1" vertex="1">
                    <mxGeometry x="200" y="190" width="60" height="60" as="geometry"/>
                </mxCell>
                <mxCell id="3xjQPuPPYgC1eYExcaYD-20" value="&lt;font style=&quot;font-size: 30px&quot;&gt;D&lt;/font&gt;" style="rounded=0;whiteSpace=wrap;html=1;" parent="U6GmGX0sfwzA4h6ffgH3-1" vertex="1">
                    <mxGeometry x="260" y="190" width="60" height="60" as="geometry"/>
                </mxCell>
                <mxCell id="3xjQPuPPYgC1eYExcaYD-23" value="1回目" style="text;html=1;align=center;verticalAlign=middle;resizable=0;points=[];autosize=1;strokeColor=none;fillColor=none;fontSize=30;" parent="U6GmGX0sfwzA4h6ffgH3-1" vertex="1">
                    <mxGeometry x="-230" y="200" width="90" height="40" as="geometry"/>
                </mxCell>
                <mxCell id="3xjQPuPPYgC1eYExcaYD-25" value="KMP法" style="text;strokeColor=none;fillColor=none;html=1;fontSize=24;fontStyle=1;verticalAlign=middle;align=center;" parent="U6GmGX0sfwzA4h6ffgH3-1" vertex="1">
                    <mxGeometry x="-240" y="10" width="100" height="40" as="geometry"/>
                </mxCell>
                <mxCell id="3xjQPuPPYgC1eYExcaYD-26" value="⭕" style="text;strokeColor=none;fillColor=none;html=1;fontSize=24;fontStyle=1;verticalAlign=middle;align=center;" parent="U6GmGX0sfwzA4h6ffgH3-1" vertex="1">
                    <mxGeometry x="-90" y="270" width="40" height="40" as="geometry"/>
                </mxCell>
                <mxCell id="3xjQPuPPYgC1eYExcaYD-27" value="⭕" style="text;strokeColor=none;fillColor=none;html=1;fontSize=24;fontStyle=1;verticalAlign=middle;align=center;" parent="U6GmGX0sfwzA4h6ffgH3-1" vertex="1">
                    <mxGeometry x="-30" y="270" width="40" height="40" as="geometry"/>
                </mxCell>
                <mxCell id="3xjQPuPPYgC1eYExcaYD-29" value="⭕" style="text;strokeColor=none;fillColor=none;html=1;fontSize=24;fontStyle=1;verticalAlign=middle;align=center;" parent="U6GmGX0sfwzA4h6ffgH3-1" vertex="1">
                    <mxGeometry x="30" y="270" width="40" height="40" as="geometry"/>
                </mxCell>
                <mxCell id="3xjQPuPPYgC1eYExcaYD-30" value="×&lt;span style=&quot;color: rgba(0 , 0 , 0 , 0) ; font-family: monospace ; font-size: 0px ; font-weight: 400&quot;&gt;%3CmxGraphModel%3E%3Croot%3E%3CmxCell%20id%3D%220%22%2F%3E%3CmxCell%20id%3D%221%22%20parent%3D%220%22%2F%3E%3CmxCell%20id%3D%222%22%20value%3D%22%E2%AD%95%22%20style%3D%22text%3BstrokeColor%3Dnone%3BfillColor%3Dnone%3Bhtml%3D1%3BfontSize%3D24%3BfontStyle%3D1%3BverticalAlign%3Dmiddle%3Balign%3Dcenter%3B%22%20vertex%3D%221%22%20parent%3D%221%22%3E%3CmxGeometry%20x%3D%2230%22%20y%3D%22270%22%20width%3D%2240%22%20height%3D%2240%22%20as%3D%22geometry%22%2F%3E%3C%2FmxCell%3E%3C%2Froot%3E%3C%2FmxGraphModel%3E&lt;/span&gt;&lt;span style=&quot;color: rgba(0 , 0 , 0 , 0) ; font-family: monospace ; font-size: 0px ; font-weight: 400&quot;&gt;%3CmxGraphModel%3E%3Croot%3E%3CmxCell%20id%3D%220%22%2F%3E%3CmxCell%20id%3D%221%22%20parent%3D%220%22%2F%3E%3CmxCell%20id%3D%222%22%20value%3D%22%E2%AD%95%22%20style%3D%22text%3BstrokeColor%3Dnone%3BfillColor%3Dnone%3Bhtml%3D1%3BfontSize%3D24%3BfontStyle%3D1%3BverticalAlign%3Dmiddle%3Balign%3Dcenter%3B%22%20vertex%3D%221%22%20parent%3D%221%22%3E%3CmxGeometry%20x%3D%2230%22%20y%3D%22270%22%20width%3D%2240%22%20height%3D%2240%22%20as%3D%22geometry%22%2F%3E%3C%2FmxCell%3E%3C%2Froot%3E%3C%2FmxGraphModel%3E&lt;/span&gt;&lt;span style=&quot;color: rgba(0 , 0 , 0 , 0) ; font-family: monospace ; font-size: 0px ; font-weight: 400&quot;&gt;%3CmxGraphModel%3E%3Croot%3E%3CmxCell%20id%3D%220%22%2F%3E%3CmxCell%20id%3D%221%22%20parent%3D%220%22%2F%3E%3CmxCell%20id%3D%222%22%20value%3D%22%E2%AD%95%22%20style%3D%22text%3BstrokeColor%3Dnone%3BfillColor%3Dnone%3Bhtml%3D1%3BfontSize%3D24%3BfontStyle%3D1%3BverticalAlign%3Dmiddle%3Balign%3Dcenter%3B%22%20vertex%3D%221%22%20parent%3D%221%22%3E%3CmxGeometry%20x%3D%2230%22%20y%3D%22270%22%20width%3D%2240%22%20height%3D%2240%22%20as%3D%22geometry%22%2F%3E%3C%2FmxCell%3E%3C%2Froot%3E%3C%2FmxGraphModel%3E&lt;/span&gt;" style="text;strokeColor=none;fillColor=none;html=1;fontSize=24;fontStyle=1;verticalAlign=middle;align=center;" parent="U6GmGX0sfwzA4h6ffgH3-1" vertex="1">
                    <mxGeometry x="90" y="270" width="40" height="40" as="geometry"/>
                </mxCell>
                <mxCell id="3xjQPuPPYgC1eYExcaYD-34" value="&lt;font style=&quot;font-size: 30px&quot;&gt;A&lt;/font&gt;" style="rounded=0;whiteSpace=wrap;html=1;" parent="U6GmGX0sfwzA4h6ffgH3-1" vertex="1">
                    <mxGeometry x="260" y="330" width="60" height="60" as="geometry"/>
                </mxCell>
                <mxCell id="3xjQPuPPYgC1eYExcaYD-35" value="&lt;font style=&quot;font-size: 30px&quot;&gt;B&lt;/font&gt;" style="rounded=0;whiteSpace=wrap;html=1;" parent="U6GmGX0sfwzA4h6ffgH3-1" vertex="1">
                    <mxGeometry x="140" y="330" width="60" height="60" as="geometry"/>
                </mxCell>
                <mxCell id="3xjQPuPPYgC1eYExcaYD-36" value="&lt;font style=&quot;font-size: 30px&quot;&gt;A&lt;/font&gt;" style="rounded=0;whiteSpace=wrap;html=1;" parent="U6GmGX0sfwzA4h6ffgH3-1" vertex="1">
                    <mxGeometry x="80" y="330" width="60" height="60" as="geometry"/>
                </mxCell>
                <mxCell id="3xjQPuPPYgC1eYExcaYD-37" value="&lt;font style=&quot;font-size: 30px&quot;&gt;C&lt;/font&gt;" style="rounded=0;whiteSpace=wrap;html=1;" parent="U6GmGX0sfwzA4h6ffgH3-1" vertex="1">
                    <mxGeometry x="200" y="330" width="60" height="60" as="geometry"/>
                </mxCell>
                <mxCell id="3xjQPuPPYgC1eYExcaYD-38" value="&lt;font style=&quot;font-size: 30px&quot;&gt;B&lt;/font&gt;" style="rounded=0;whiteSpace=wrap;html=1;" parent="U6GmGX0sfwzA4h6ffgH3-1" vertex="1">
                    <mxGeometry x="320" y="330" width="60" height="60" as="geometry"/>
                </mxCell>
                <mxCell id="3xjQPuPPYgC1eYExcaYD-39" value="&lt;font style=&quot;font-size: 30px&quot;&gt;C&lt;/font&gt;" style="rounded=0;whiteSpace=wrap;html=1;" parent="U6GmGX0sfwzA4h6ffgH3-1" vertex="1">
                    <mxGeometry x="380" y="330" width="60" height="60" as="geometry"/>
                </mxCell>
                <mxCell id="3xjQPuPPYgC1eYExcaYD-40" value="&lt;font style=&quot;font-size: 30px&quot;&gt;D&lt;/font&gt;" style="rounded=0;whiteSpace=wrap;html=1;" parent="U6GmGX0sfwzA4h6ffgH3-1" vertex="1">
                    <mxGeometry x="440" y="330" width="60" height="60" as="geometry"/>
                </mxCell>
                <mxCell id="3xjQPuPPYgC1eYExcaYD-41" value="2回目" style="text;html=1;align=center;verticalAlign=middle;resizable=0;points=[];autosize=1;strokeColor=none;fillColor=none;fontSize=30;" parent="U6GmGX0sfwzA4h6ffgH3-1" vertex="1">
                    <mxGeometry x="-230" y="340" width="90" height="40" as="geometry"/>
                </mxCell>
                <mxCell id="3xjQPuPPYgC1eYExcaYD-42" value="×" style="text;strokeColor=none;fillColor=none;html=1;fontSize=24;fontStyle=1;verticalAlign=middle;align=center;" parent="U6GmGX0sfwzA4h6ffgH3-1" vertex="1">
                    <mxGeometry x="90" y="410" width="40" height="40" as="geometry"/>
                </mxCell>
                <mxCell id="3xjQPuPPYgC1eYExcaYD-49" value="&lt;font style=&quot;font-size: 30px&quot;&gt;A&lt;/font&gt;" style="rounded=0;whiteSpace=wrap;html=1;" parent="U6GmGX0sfwzA4h6ffgH3-1" vertex="1">
                    <mxGeometry x="320" y="465" width="60" height="60" as="geometry"/>
                </mxCell>
                <mxCell id="3xjQPuPPYgC1eYExcaYD-50" value="&lt;font style=&quot;font-size: 30px&quot;&gt;B&lt;/font&gt;" style="rounded=0;whiteSpace=wrap;html=1;" parent="U6GmGX0sfwzA4h6ffgH3-1" vertex="1">
                    <mxGeometry x="200" y="465" width="60" height="60" as="geometry"/>
                </mxCell>
                <mxCell id="3xjQPuPPYgC1eYExcaYD-51" value="&lt;font style=&quot;font-size: 30px&quot;&gt;A&lt;/font&gt;" style="rounded=0;whiteSpace=wrap;html=1;" parent="U6GmGX0sfwzA4h6ffgH3-1" vertex="1">
                    <mxGeometry x="140" y="465" width="60" height="60" as="geometry"/>
                </mxCell>
                <mxCell id="3xjQPuPPYgC1eYExcaYD-52" value="&lt;font style=&quot;font-size: 30px&quot;&gt;C&lt;/font&gt;" style="rounded=0;whiteSpace=wrap;html=1;" parent="U6GmGX0sfwzA4h6ffgH3-1" vertex="1">
                    <mxGeometry x="260" y="465" width="60" height="60" as="geometry"/>
                </mxCell>
                <mxCell id="3xjQPuPPYgC1eYExcaYD-53" value="&lt;font style=&quot;font-size: 30px&quot;&gt;B&lt;/font&gt;" style="rounded=0;whiteSpace=wrap;html=1;" parent="U6GmGX0sfwzA4h6ffgH3-1" vertex="1">
                    <mxGeometry x="380" y="465" width="60" height="60" as="geometry"/>
                </mxCell>
                <mxCell id="3xjQPuPPYgC1eYExcaYD-54" value="&lt;font style=&quot;font-size: 30px&quot;&gt;C&lt;/font&gt;" style="rounded=0;whiteSpace=wrap;html=1;" parent="U6GmGX0sfwzA4h6ffgH3-1" vertex="1">
                    <mxGeometry x="440" y="465" width="60" height="60" as="geometry"/>
                </mxCell>
                <mxCell id="3xjQPuPPYgC1eYExcaYD-55" value="&lt;font style=&quot;font-size: 30px&quot;&gt;D&lt;/font&gt;" style="rounded=0;whiteSpace=wrap;html=1;" parent="U6GmGX0sfwzA4h6ffgH3-1" vertex="1">
                    <mxGeometry x="500" y="465" width="60" height="60" as="geometry"/>
                </mxCell>
                <mxCell id="3xjQPuPPYgC1eYExcaYD-56" value="3回目" style="text;html=1;align=center;verticalAlign=middle;resizable=0;points=[];autosize=1;strokeColor=none;fillColor=none;fontSize=30;" parent="U6GmGX0sfwzA4h6ffgH3-1" vertex="1">
                    <mxGeometry x="-230" y="475" width="90" height="40" as="geometry"/>
                </mxCell>
                <mxCell id="3xjQPuPPYgC1eYExcaYD-57" value="⭕" style="text;strokeColor=none;fillColor=none;html=1;fontSize=24;fontStyle=1;verticalAlign=middle;align=center;" parent="U6GmGX0sfwzA4h6ffgH3-1" vertex="1">
                    <mxGeometry x="150" y="545" width="40" height="40" as="geometry"/>
                </mxCell>
                <mxCell id="3xjQPuPPYgC1eYExcaYD-58" value="⭕" style="text;strokeColor=none;fillColor=none;html=1;fontSize=24;fontStyle=1;verticalAlign=middle;align=center;" parent="U6GmGX0sfwzA4h6ffgH3-1" vertex="1">
                    <mxGeometry x="210" y="545" width="40" height="40" as="geometry"/>
                </mxCell>
                <mxCell id="3xjQPuPPYgC1eYExcaYD-59" value="⭕" style="text;strokeColor=none;fillColor=none;html=1;fontSize=24;fontStyle=1;verticalAlign=middle;align=center;" parent="U6GmGX0sfwzA4h6ffgH3-1" vertex="1">
                    <mxGeometry x="270" y="545" width="40" height="40" as="geometry"/>
                </mxCell>
                <mxCell id="3xjQPuPPYgC1eYExcaYD-60" value="⭕" style="text;strokeColor=none;fillColor=none;html=1;fontSize=24;fontStyle=1;verticalAlign=middle;align=center;" parent="U6GmGX0sfwzA4h6ffgH3-1" vertex="1">
                    <mxGeometry x="330" y="545" width="40" height="40" as="geometry"/>
                </mxCell>
                <mxCell id="3xjQPuPPYgC1eYExcaYD-61" value="⭕" style="text;strokeColor=none;fillColor=none;html=1;fontSize=24;fontStyle=1;verticalAlign=middle;align=center;" parent="U6GmGX0sfwzA4h6ffgH3-1" vertex="1">
                    <mxGeometry x="390" y="545" width="40" height="40" as="geometry"/>
                </mxCell>
                <mxCell id="3xjQPuPPYgC1eYExcaYD-62" value="⭕" style="text;strokeColor=none;fillColor=none;html=1;fontSize=24;fontStyle=1;verticalAlign=middle;align=center;" parent="U6GmGX0sfwzA4h6ffgH3-1" vertex="1">
                    <mxGeometry x="450" y="545" width="40" height="40" as="geometry"/>
                </mxCell>
                <mxCell id="3xjQPuPPYgC1eYExcaYD-63" value="×&lt;span style=&quot;color: rgba(0 , 0 , 0 , 0) ; font-family: monospace ; font-size: 0px ; font-weight: 400&quot;&gt;%3CmxGraphModel%3E%3Croot%3E%3CmxCell%20id%3D%220%22%2F%3E%3CmxCell%20id%3D%221%22%20parent%3D%220%22%2F%3E%3CmxCell%20id%3D%222%22%20value%3D%22%E2%AD%95%22%20style%3D%22text%3BstrokeColor%3Dnone%3BfillColor%3Dnone%3Bhtml%3D1%3BfontSize%3D24%3BfontStyle%3D1%3BverticalAlign%3Dmiddle%3Balign%3Dcenter%3B%22%20vertex%3D%221%22%20parent%3D%221%22%3E%3CmxGeometry%20x%3D%2230%22%20y%3D%22270%22%20width%3D%2240%22%20height%3D%2240%22%20as%3D%22geometry%22%2F%3E%3C%2FmxCell%3E%3C%2Froot%3E%3C%2FmxGraphModel%3E&lt;/span&gt;&lt;span style=&quot;color: rgba(0 , 0 , 0 , 0) ; font-family: monospace ; font-size: 0px ; font-weight: 400&quot;&gt;%3CmxGraphModel%3E%3Croot%3E%3CmxCell%20id%3D%220%22%2F%3E%3CmxCell%20id%3D%221%22%20parent%3D%220%22%2F%3E%3CmxCell%20id%3D%222%22%20value%3D%22%E2%AD%95%22%20style%3D%22text%3BstrokeColor%3Dnone%3BfillColor%3Dnone%3Bhtml%3D1%3BfontSize%3D24%3BfontStyle%3D1%3BverticalAlign%3Dmiddle%3Balign%3Dcenter%3B%22%20vertex%3D%221%22%20parent%3D%221%22%3E%3CmxGeometry%20x%3D%2230%22%20y%3D%22270%22%20width%3D%2240%22%20height%3D%2240%22%20as%3D%22geometry%22%2F%3E%3C%2FmxCell%3E%3C%2Froot%3E%3C%2FmxGraphModel%3E&lt;/span&gt;&lt;span style=&quot;color: rgba(0 , 0 , 0 , 0) ; font-family: monospace ; font-size: 0px ; font-weight: 400&quot;&gt;%3CmxGraphModel%3E%3Croot%3E%3CmxCell%20id%3D%220%22%2F%3E%3CmxCell%20id%3D%221%22%20parent%3D%220%22%2F%3E%3CmxCell%20id%3D%222%22%20value%3D%22%E2%AD%95%22%20style%3D%22text%3BstrokeColor%3Dnone%3BfillColor%3Dnone%3Bhtml%3D1%3BfontSize%3D24%3BfontStyle%3D1%3BverticalAlign%3Dmiddle%3Balign%3Dcenter%3B%22%20vertex%3D%221%22%20parent%3D%221%22%3E%3CmxGeometry%20x%3D%2230%22%20y%3D%22270%22%20width%3D%2240%22%20height%3D%2240%22%20as%3D%22geometry%22%2F%3E%3C%2FmxCell%3E%3C%2Froot%3E%3C%2FmxGraphModel%3E&lt;/span&gt;" style="text;strokeColor=none;fillColor=none;html=1;fontSize=24;fontStyle=1;verticalAlign=middle;align=center;" parent="U6GmGX0sfwzA4h6ffgH3-1" vertex="1">
                    <mxGeometry x="510" y="545" width="40" height="40" as="geometry"/>
                </mxCell>
                <mxCell id="3xjQPuPPYgC1eYExcaYD-64" value="&lt;font style=&quot;font-size: 30px&quot;&gt;A&lt;/font&gt;" style="rounded=0;whiteSpace=wrap;html=1;" parent="U6GmGX0sfwzA4h6ffgH3-1" vertex="1">
                    <mxGeometry x="500" y="610" width="60" height="60" as="geometry"/>
                </mxCell>
                <mxCell id="3xjQPuPPYgC1eYExcaYD-65" value="&lt;font style=&quot;font-size: 30px&quot;&gt;B&lt;/font&gt;" style="rounded=0;whiteSpace=wrap;html=1;" parent="U6GmGX0sfwzA4h6ffgH3-1" vertex="1">
                    <mxGeometry x="380" y="610" width="60" height="60" as="geometry"/>
                </mxCell>
                <mxCell id="3xjQPuPPYgC1eYExcaYD-66" value="&lt;font style=&quot;font-size: 30px&quot;&gt;A&lt;/font&gt;" style="rounded=0;whiteSpace=wrap;html=1;" parent="U6GmGX0sfwzA4h6ffgH3-1" vertex="1">
                    <mxGeometry x="320" y="610" width="60" height="60" as="geometry"/>
                </mxCell>
                <mxCell id="3xjQPuPPYgC1eYExcaYD-67" value="&lt;font style=&quot;font-size: 30px&quot;&gt;C&lt;/font&gt;" style="rounded=0;whiteSpace=wrap;html=1;" parent="U6GmGX0sfwzA4h6ffgH3-1" vertex="1">
                    <mxGeometry x="440" y="610" width="60" height="60" as="geometry"/>
                </mxCell>
                <mxCell id="3xjQPuPPYgC1eYExcaYD-68" value="&lt;font style=&quot;font-size: 30px&quot;&gt;B&lt;/font&gt;" style="rounded=0;whiteSpace=wrap;html=1;" parent="U6GmGX0sfwzA4h6ffgH3-1" vertex="1">
                    <mxGeometry x="560" y="610" width="60" height="60" as="geometry"/>
                </mxCell>
                <mxCell id="3xjQPuPPYgC1eYExcaYD-69" value="&lt;font style=&quot;font-size: 30px&quot;&gt;C&lt;/font&gt;" style="rounded=0;whiteSpace=wrap;html=1;" parent="U6GmGX0sfwzA4h6ffgH3-1" vertex="1">
                    <mxGeometry x="620" y="610" width="60" height="60" as="geometry"/>
                </mxCell>
                <mxCell id="3xjQPuPPYgC1eYExcaYD-70" value="&lt;font style=&quot;font-size: 30px&quot;&gt;D&lt;/font&gt;" style="rounded=0;whiteSpace=wrap;html=1;" parent="U6GmGX0sfwzA4h6ffgH3-1" vertex="1">
                    <mxGeometry x="680" y="610" width="60" height="60" as="geometry"/>
                </mxCell>
                <mxCell id="3xjQPuPPYgC1eYExcaYD-71" value="⭕" style="text;strokeColor=none;fillColor=none;html=1;fontSize=24;fontStyle=1;verticalAlign=middle;align=center;" parent="U6GmGX0sfwzA4h6ffgH3-1" vertex="1">
                    <mxGeometry x="330" y="690" width="40" height="40" as="geometry"/>
                </mxCell>
                <mxCell id="3xjQPuPPYgC1eYExcaYD-72" value="⭕" style="text;strokeColor=none;fillColor=none;html=1;fontSize=24;fontStyle=1;verticalAlign=middle;align=center;" parent="U6GmGX0sfwzA4h6ffgH3-1" vertex="1">
                    <mxGeometry x="390" y="690" width="40" height="40" as="geometry"/>
                </mxCell>
                <mxCell id="3xjQPuPPYgC1eYExcaYD-73" value="⭕" style="text;strokeColor=none;fillColor=none;html=1;fontSize=24;fontStyle=1;verticalAlign=middle;align=center;" parent="U6GmGX0sfwzA4h6ffgH3-1" vertex="1">
                    <mxGeometry x="450" y="690" width="40" height="40" as="geometry"/>
                </mxCell>
                <mxCell id="3xjQPuPPYgC1eYExcaYD-74" value="⭕" style="text;strokeColor=none;fillColor=none;html=1;fontSize=24;fontStyle=1;verticalAlign=middle;align=center;" parent="U6GmGX0sfwzA4h6ffgH3-1" vertex="1">
                    <mxGeometry x="510" y="690" width="40" height="40" as="geometry"/>
                </mxCell>
                <mxCell id="3xjQPuPPYgC1eYExcaYD-75" value="⭕" style="text;strokeColor=none;fillColor=none;html=1;fontSize=24;fontStyle=1;verticalAlign=middle;align=center;" parent="U6GmGX0sfwzA4h6ffgH3-1" vertex="1">
                    <mxGeometry x="570" y="690" width="40" height="40" as="geometry"/>
                </mxCell>
                <mxCell id="3xjQPuPPYgC1eYExcaYD-76" value="⭕" style="text;strokeColor=none;fillColor=none;html=1;fontSize=24;fontStyle=1;verticalAlign=middle;align=center;" parent="U6GmGX0sfwzA4h6ffgH3-1" vertex="1">
                    <mxGeometry x="630" y="690" width="40" height="40" as="geometry"/>
                </mxCell>
                <mxCell id="3xjQPuPPYgC1eYExcaYD-77" value="⭕" style="text;strokeColor=none;fillColor=none;html=1;fontSize=24;fontStyle=1;verticalAlign=middle;align=center;" parent="U6GmGX0sfwzA4h6ffgH3-1" vertex="1">
                    <mxGeometry x="690" y="690" width="40" height="40" as="geometry"/>
                </mxCell>
                <mxCell id="3xjQPuPPYgC1eYExcaYD-80" value="&lt;span style=&quot;color: rgb(0 , 0 , 0) ; font-family: &amp;#34;helvetica&amp;#34; ; font-size: 30px ; font-style: normal ; font-weight: 400 ; letter-spacing: normal ; text-align: center ; text-indent: 0px ; text-transform: none ; word-spacing: 0px ; background-color: rgb(248 , 249 , 250) ; display: inline ; float: none&quot;&gt;4回目&lt;/span&gt;" style="text;whiteSpace=wrap;html=1;fontSize=30;" parent="U6GmGX0sfwzA4h6ffgH3-1" vertex="1">
                    <mxGeometry x="-220" y="615" width="100" height="50" as="geometry"/>
                </mxCell>
                <mxCell id="xn6qgx4UypJXoIRVkFjh-27" value="Table" style="shape=table;startSize=30;container=1;collapsible=0;childLayout=tableLayout;fontStyle=1;align=center;pointerEvents=1;fontSize=30;" parent="U6GmGX0sfwzA4h6ffgH3-1" vertex="1">
                    <mxGeometry x="10" y="780" width="420" height="110" as="geometry"/>
                </mxCell>
                <mxCell id="xn6qgx4UypJXoIRVkFjh-28" value="" style="shape=partialRectangle;html=1;whiteSpace=wrap;collapsible=0;dropTarget=0;pointerEvents=0;fillColor=none;top=0;left=0;bottom=0;right=0;points=[[0,0.5],[1,0.5]];portConstraint=eastwest;fontSize=30;" parent="xn6qgx4UypJXoIRVkFjh-27" vertex="1">
                    <mxGeometry y="30" width="420" height="40" as="geometry"/>
                </mxCell>
                <mxCell id="xn6qgx4UypJXoIRVkFjh-43" value="A" style="shape=partialRectangle;html=1;whiteSpace=wrap;connectable=0;fillColor=none;top=0;left=0;bottom=0;right=0;overflow=hidden;pointerEvents=1;fontSize=30;" parent="xn6qgx4UypJXoIRVkFjh-28" vertex="1">
                    <mxGeometry width="60" height="40" as="geometry">
                        <mxRectangle width="60" height="40" as="alternateBounds"/>
                    </mxGeometry>
                </mxCell>
                <mxCell id="xn6qgx4UypJXoIRVkFjh-40" value="B" style="shape=partialRectangle;html=1;whiteSpace=wrap;connectable=0;fillColor=none;top=0;left=0;bottom=0;right=0;overflow=hidden;pointerEvents=1;fontSize=30;" parent="xn6qgx4UypJXoIRVkFjh-28" vertex="1">
                    <mxGeometry x="60" width="60" height="40" as="geometry">
                        <mxRectangle width="60" height="40" as="alternateBounds"/>
                    </mxGeometry>
                </mxCell>
                <mxCell id="xn6qgx4UypJXoIRVkFjh-29" value="C" style="shape=partialRectangle;html=1;whiteSpace=wrap;connectable=0;fillColor=none;top=0;left=0;bottom=0;right=0;overflow=hidden;pointerEvents=1;fontSize=30;" parent="xn6qgx4UypJXoIRVkFjh-28" vertex="1">
                    <mxGeometry x="120" width="60" height="40" as="geometry">
                        <mxRectangle width="60" height="40" as="alternateBounds"/>
                    </mxGeometry>
                </mxCell>
                <mxCell id="xn6qgx4UypJXoIRVkFjh-30" value="A" style="shape=partialRectangle;html=1;whiteSpace=wrap;connectable=0;fillColor=none;top=0;left=0;bottom=0;right=0;overflow=hidden;pointerEvents=1;fontSize=30;" parent="xn6qgx4UypJXoIRVkFjh-28" vertex="1">
                    <mxGeometry x="180" width="60" height="40" as="geometry">
                        <mxRectangle width="60" height="40" as="alternateBounds"/>
                    </mxGeometry>
                </mxCell>
                <mxCell id="xn6qgx4UypJXoIRVkFjh-51" value="B" style="shape=partialRectangle;html=1;whiteSpace=wrap;connectable=0;fillColor=none;top=0;left=0;bottom=0;right=0;overflow=hidden;pointerEvents=1;fontSize=30;" parent="xn6qgx4UypJXoIRVkFjh-28" vertex="1">
                    <mxGeometry x="240" width="60" height="40" as="geometry">
                        <mxRectangle width="60" height="40" as="alternateBounds"/>
                    </mxGeometry>
                </mxCell>
                <mxCell id="xn6qgx4UypJXoIRVkFjh-53" value="C" style="shape=partialRectangle;html=1;whiteSpace=wrap;connectable=0;fillColor=none;top=0;left=0;bottom=0;right=0;overflow=hidden;pointerEvents=1;fontSize=30;" parent="xn6qgx4UypJXoIRVkFjh-28" vertex="1">
                    <mxGeometry x="300" width="60" height="40" as="geometry">
                        <mxRectangle width="60" height="40" as="alternateBounds"/>
                    </mxGeometry>
                </mxCell>
                <mxCell id="xn6qgx4UypJXoIRVkFjh-55" value="D" style="shape=partialRectangle;html=1;whiteSpace=wrap;connectable=0;fillColor=none;top=0;left=0;bottom=0;right=0;overflow=hidden;pointerEvents=1;fontSize=30;" parent="xn6qgx4UypJXoIRVkFjh-28" vertex="1">
                    <mxGeometry x="360" width="60" height="40" as="geometry">
                        <mxRectangle width="60" height="40" as="alternateBounds"/>
                    </mxGeometry>
                </mxCell>
                <mxCell id="xn6qgx4UypJXoIRVkFjh-32" value="" style="shape=partialRectangle;html=1;whiteSpace=wrap;collapsible=0;dropTarget=0;pointerEvents=0;fillColor=none;top=0;left=0;bottom=0;right=0;points=[[0,0.5],[1,0.5]];portConstraint=eastwest;fontSize=30;" parent="xn6qgx4UypJXoIRVkFjh-27" vertex="1">
                    <mxGeometry y="70" width="420" height="40" as="geometry"/>
                </mxCell>
                <mxCell id="xn6qgx4UypJXoIRVkFjh-44" value="-1" style="shape=partialRectangle;html=1;whiteSpace=wrap;connectable=0;fillColor=none;top=0;left=0;bottom=0;right=0;overflow=hidden;pointerEvents=1;fontSize=30;" parent="xn6qgx4UypJXoIRVkFjh-32" vertex="1">
                    <mxGeometry width="60" height="40" as="geometry">
                        <mxRectangle width="60" height="40" as="alternateBounds"/>
                    </mxGeometry>
                </mxCell>
                <mxCell id="xn6qgx4UypJXoIRVkFjh-41" value="0" style="shape=partialRectangle;html=1;whiteSpace=wrap;connectable=0;fillColor=none;top=0;left=0;bottom=0;right=0;overflow=hidden;pointerEvents=1;fontSize=30;" parent="xn6qgx4UypJXoIRVkFjh-32" vertex="1">
                    <mxGeometry x="60" width="60" height="40" as="geometry">
                        <mxRectangle width="60" height="40" as="alternateBounds"/>
                    </mxGeometry>
                </mxCell>
                <mxCell id="xn6qgx4UypJXoIRVkFjh-33" value="0" style="shape=partialRectangle;html=1;whiteSpace=wrap;connectable=0;fillColor=none;top=0;left=0;bottom=0;right=0;overflow=hidden;pointerEvents=1;fontSize=30;" parent="xn6qgx4UypJXoIRVkFjh-32" vertex="1">
                    <mxGeometry x="120" width="60" height="40" as="geometry">
                        <mxRectangle width="60" height="40" as="alternateBounds"/>
                    </mxGeometry>
                </mxCell>
                <mxCell id="xn6qgx4UypJXoIRVkFjh-34" value="0" style="shape=partialRectangle;html=1;whiteSpace=wrap;connectable=0;fillColor=none;top=0;left=0;bottom=0;right=0;overflow=hidden;pointerEvents=1;fontSize=30;" parent="xn6qgx4UypJXoIRVkFjh-32" vertex="1">
                    <mxGeometry x="180" width="60" height="40" as="geometry">
                        <mxRectangle width="60" height="40" as="alternateBounds"/>
                    </mxGeometry>
                </mxCell>
                <mxCell id="xn6qgx4UypJXoIRVkFjh-52" value="1" style="shape=partialRectangle;html=1;whiteSpace=wrap;connectable=0;fillColor=none;top=0;left=0;bottom=0;right=0;overflow=hidden;pointerEvents=1;fontSize=30;" parent="xn6qgx4UypJXoIRVkFjh-32" vertex="1">
                    <mxGeometry x="240" width="60" height="40" as="geometry">
                        <mxRectangle width="60" height="40" as="alternateBounds"/>
                    </mxGeometry>
                </mxCell>
                <mxCell id="xn6qgx4UypJXoIRVkFjh-54" value="2" style="shape=partialRectangle;html=1;whiteSpace=wrap;connectable=0;fillColor=none;top=0;left=0;bottom=0;right=0;overflow=hidden;pointerEvents=1;fontSize=30;" parent="xn6qgx4UypJXoIRVkFjh-32" vertex="1">
                    <mxGeometry x="300" width="60" height="40" as="geometry">
                        <mxRectangle width="60" height="40" as="alternateBounds"/>
                    </mxGeometry>
                </mxCell>
                <mxCell id="xn6qgx4UypJXoIRVkFjh-56" value="3" style="shape=partialRectangle;html=1;whiteSpace=wrap;connectable=0;fillColor=none;top=0;left=0;bottom=0;right=0;overflow=hidden;pointerEvents=1;fontSize=30;" parent="xn6qgx4UypJXoIRVkFjh-32" vertex="1">
                    <mxGeometry x="360" width="60" height="40" as="geometry">
                        <mxRectangle width="60" height="40" as="alternateBounds"/>
                    </mxGeometry>
                </mxCell>
            </root>
        </mxGraphModel>
    </diagram>
</mxfile>